<svg xmlns="http://www.w3.org/2000/svg" width="24" height="24" viewBox="0 0 24 24">
    <g transform="translate(-53 -612)">
        <circle data-name="40x40" cx="12" cy="12" r="12" transform="translate(53 612)" style="fill:none"/>
        <path data-name="Path 12315" d="M19.39 5.675a.324.324 0 0 0-.544-.149l-1.593 1.593a1.625 1.625 0 0 1-2.3.016L13.909 6.09a1.625 1.625 0 0 1 .016-2.3l1.594-1.59a.324.324 0 0 0-.149-.544 5.465 5.465 0 0 0-6.423 7.208.323.323 0 0 1-.072.342l-6.764 6.765a2.095 2.095 0 0 0 2.963 2.963l6.764-6.764a.323.323 0 0 1 .342-.072 5.465 5.465 0 0 0 7.21-6.423z" transform="translate(54.366 612.537)" style="stroke:#fff;stroke-miterlimit:10;fill:none"/>
        <path data-name="Path 12316" d="M8.376 55.179a.824.824 0 1 1 0-1.166.824.824 0 0 1 0 1.166" transform="translate(50.451 575.108)" style="fill:#fff"/>
        <path data-name="Path 12317" d="m48.822 49.005-.087-.2a1.954 1.954 0 0 0-.108-.207 2.034 2.034 0 0 0-.126-.2l-.134-.177c.002.002.032-.1.065-.216l.181-.654a.31.31 0 0 0-.136-.333l-.91-.525a.31.31 0 0 0-.356.049l-.476.484a4.631 4.631 0 0 0-.157.163l-.224-.016H45.9l-.223.016s-.068-.075-.155-.164l-.476-.483a.31.31 0 0 0-.356-.049l-.91.525a.31.31 0 0 0-.136.333l.181.654c.034.12.062.218.064.217s-.054.082-.125.185l-.23.4c-.054.113-.1.2-.1.2s-.1.023-.22.055l-.657.17a.31.31 0 0 0-.22.284v1.05a.31.31 0 0 0 .22.284l.657.17c.121.031.22.055.22.051s.039.089.087.2a2.021 2.021 0 0 0 .108.208 1.978 1.978 0 0 0 .126.2c.076.1.136.179.133.177s-.032.1-.065.216l-.181.654a.31.31 0 0 0 .136.333l.91.525a.31.31 0 0 0 .356-.048l.476-.484c.087-.089.158-.162.157-.163l.225.016h.457c.124-.01.225-.018.223-.016s.068.075.155.164l.476.484a.31.31 0 0 0 .356.048l.91-.525a.31.31 0 0 0 .136-.333l-.181-.654c-.033-.12-.062-.218-.064-.217s.054-.082.126-.185l.229-.4c.054-.113.1-.2.1-.2s.1-.023.22-.055l.657-.17a.31.31 0 0 0 .22-.284v-1.051a.31.31 0 0 0-.22-.284l-.657-.17a1.825 1.825 0 0 0-.223-.052z" transform="translate(25.125 580.346)" style="stroke-width:.9px;stroke:#fff;stroke-miterlimit:10;fill:none"/>
        <path data-name="Path 12318" d="M53.771 55.573a1.156 1.156 0 1 1-1.579-.423 1.156 1.156 0 0 1 1.579.423z" transform="translate(18.483 574.232)" style="stroke-width:.9px;stroke:#fff;stroke-miterlimit:10;fill:none"/>
    </g>
</svg>
