<svg xmlns="http://www.w3.org/2000/svg" width="24" height="24" viewBox="0 0 24 24">
    <path data-name="Path 12328" d="M20.014 5.821a.336.336 0 0 0-.563-.154L17.8 7.315a1.681 1.681 0 0 1-2.378.017L14.343 6.25a1.681 1.681 0 0 1 .017-2.378l1.649-1.649a.336.336 0 0 0-.154-.563 5.656 5.656 0 0 0-6.648 7.461.334.334 0 0 1-.074.354l-7 7A2.168 2.168 0 1 0 5.2 19.542l7-7a.334.334 0 0 1 .354-.074 5.656 5.656 0 0 0 7.461-6.647z" transform="translate(1.162 1.333)" style="stroke:#fff;stroke-miterlimit:10;fill:none"/>
    <path data-name="Path 12329" d="M8.425 55.228a.853.853 0 1 1 0-1.207.853.853 0 0 1 0 1.207" transform="translate(-2.699 -35.577)" style="fill:#fff"/>
</svg>
