<svg id="ProArt_SW_Icon" data-name="ProArt SW Icon" xmlns="http://www.w3.org/2000/svg" viewBox="0 0 48 48"><g id="asus_proart_sw_ico_lock"><path d="M38.4,19.4H33V16a9,9,0,0,0-18,0v3.4H9.6a1,1,0,0,0-1,1V36a5,5,0,0,0,5,5H34.4a5,5,0,0,0,5-5V20.4A1,1,0,0,0,38.4,19.4ZM17,16a7,7,0,0,1,14,0v3.4H17ZM37.4,36a3,3,0,0,1-3,3H13.6a3,3,0,0,1-3-3V21.4H37.4ZM27,28.2a3,3,0,0,1-1.5,2.58V35.2h-3V30.78a3,3,0,0,1,1.2-5.55,1.51,1.51,0,0,1,.6,0A3,3,0,0,1,27,28.2Z"/><rect width="48" height="48" style="fill:none"/></g></svg>