<svg xmlns="http://www.w3.org/2000/svg" width="24" height="24" viewBox="0 0 24 24">
    <g transform="translate(-38 -234)">
        <circle data-name="24x24" cx="12" cy="12" r="12" transform="translate(38 234)" style="fill:none"/>
        <g data-name="Group 26184">
            <path data-name="Path 12348" d="M6.168 2.72V1M9.6 2.72V1m3.44 1.72V1m3.44 5.16h1.72M16.479 9.6H18.2m-1.72 3.44h1.72m-5.16 3.44v1.72m-3.431-1.72v1.72m-3.44-1.72v1.72M1 6.16h1.72M1 9.6h1.72M1 13.039h1.72" transform="translate(40.401 236.401)" style="stroke-linecap:round;stroke-linejoin:round;stroke-width:.8px;stroke-dasharray:0 0;fill-rule:evenodd;stroke:#fff;fill:none"/>
            <path data-name="Path 12349" d="M9.018 7.16 8.25 8.5c-.172.294-.26.553.31.539h.915c.683.009.482.245.31.539l-.768 1.34" transform="translate(40.983 236.961)" style="stroke-linecap:round;stroke-linejoin:round;stroke-width:.8px;stroke-dasharray:0 0;fill-rule:evenodd;stroke:#fff;fill:none"/>
            <g data-name="Rectangle 9291" transform="translate(43 239)" style="stroke:#fff;fill:none">
                <rect width="14" height="14" rx="2" style="stroke:none"/>
                <rect x=".5" y=".5" width="13" height="13" rx="1.5" style="fill:none"/>
            </g>
            <g data-name="Rectangle 9292" transform="translate(46 242)" style="stroke:#fff;fill:none">
                <rect width="8" height="8" rx="1" style="stroke:none"/>
                <rect x=".5" y=".5" width="7" height="7" rx=".5" style="fill:none"/>
            </g>
        </g>
    </g>
</svg>
