<svg width="41" height="40" viewBox="0 0 41 40" xmlns="http://www.w3.org/2000/svg" xmlns:xlink="http://www.w3.org/1999/xlink">
    <defs>
        <circle id="upo6e6l0fa" cx="20" cy="20" r="20"/>
    </defs>
    <g fill="none" fill-rule="evenodd">
        <use fill="#FFF" xlink:href="#upo6e6l0fa" transform="translate(.5)"/>
        <g stroke="#1676FF" stroke-linecap="round" stroke-linejoin="round" stroke-width="1.875">
            <path d="M19.54 29.6c-.503 0-.932-.364-1.013-.86a1.114 1.114 0 0 0-.753-.854 8.098 8.098 0 0 1-.927-.384 1.097 1.097 0 0 0-1.12.071 1.01 1.01 0 0 1-1.302-.106l-1.36-1.36a1.059 1.059 0 0 1-.113-1.365 1.15 1.15 0 0 0 .087-1.147 7.954 7.954 0 0 1-.31-.79 1.186 1.186 0 0 0-.914-.823 1.086 1.086 0 0 1-.915-1.065v-1.701a1.245 1.245 0 0 1 1.042-1.235c.458-.087.84-.4 1.015-.832a9.17 9.17 0 0 1 .165-.362c.232-.448.2-.988-.084-1.405a1.243 1.243 0 0 1 .129-1.603l1-1a1.425 1.425 0 0 1 1.837-.15l.032.022c.423.284.962.336 1.432.137.502-.181.873-.613.975-1.137l.014-.047a1.435 1.435 0 0 1 1.415-1.204h1.207c.722 0 1.338.522 1.456 1.234l.022.096c.097.502.448.918.927 1.097.462.199.993.147 1.407-.137l.069-.05a1.462 1.462 0 0 1 1.888.153l.92.922c.462.464.52 1.193.138 1.724a1.49 1.49 0 0 0-.1 1.493l.059.137c.192.469.608.808 1.105.903.65.106 1.128.666 1.13 1.324v1.527c0 .58-.42 1.076-.993 1.171-.471.09-.855.431-1 .889a8.482 8.482 0 0 1-.214.548A1.26 1.26 0 0 0 28 24.666a1.15 1.15 0 0 1-.12 1.485l-1.277 1.278c-.365.365-.941.412-1.36.111a1.147 1.147 0 0 0-1.18-.068c-.268.132-.542.25-.823.352a1.152 1.152 0 0 0-.757.88 1.06 1.06 0 0 1-1.04.896H19.54z"/>
            <path d="M23.7 20a3.2 3.2 0 1 1-6.4 0 3.2 3.2 0 0 1 6.4 0z"/>
        </g>
    </g>
</svg>
