<svg width="18" height="18" viewBox="0 0 18 18" xmlns="http://www.w3.org/2000/svg">
    <g fill="none" fill-rule="evenodd">
        <ellipse fill="#FE5164" cx="9.018" cy="9" rx="9.018" ry="9"/>
        <path d="M9.619 4.114v8.326l2.847-3.188a.374.374 0 0 1 .553-.014.438.438 0 0 1 .013.59l-3.251 3.641a.754.754 0 0 1-.554.245.76.76 0 0 1-.56-.252L5.422 9.828a.43.43 0 0 1-.108-.288c0-.11.041-.22.122-.303a.374.374 0 0 1 .553.015l2.847 3.202v-8.34c0-.23.175-.418.391-.418.216 0 .392.187.392.418z" stroke="#FFF" stroke-width=".647" fill="#FFF" fill-rule="nonzero"/>
    </g>
</svg>
