<svg width="18" height="18" viewBox="0 0 18 18" xmlns="http://www.w3.org/2000/svg">
    <g fill="#FFF" fill-rule="nonzero">
        <path d="M17.548 4.875H7.182A1.814 1.814 0 0 0 5.436 3.5h-.904a1.814 1.814 0 0 0-1.746 1.375H.452A.455.455 0 0 0 0 5.333a.463.463 0 0 0 .452.459h2.334a1.814 1.814 0 0 0 1.746 1.375h.904a1.814 1.814 0 0 0 1.746-1.375h10.366c.25 0 .452-.206.452-.459a.455.455 0 0 0-.452-.458zM5.436 6.25h-.904a.916.916 0 0 1-.905-.898v-.019a.91.91 0 0 1 .905-.916h.904c.5 0 .905.41.905.916a.91.91 0 0 1-.905.917zM17.548 12.208h-2.334a1.814 1.814 0 0 0-1.746-1.375h-.904a1.814 1.814 0 0 0-1.746 1.375H.452a.455.455 0 0 0-.452.459c0 .253.202.458.452.458h10.366a1.814 1.814 0 0 0 1.746 1.375h.904a1.814 1.814 0 0 0 1.746-1.375h2.334c.25 0 .452-.205.452-.458a.463.463 0 0 0-.452-.459zm-3.175.459a.91.91 0 0 1-.905.916h-.904a.91.91 0 0 1-.905-.916.91.91 0 0 1 .905-.917h.904c.492.003.892.4.905.898v.019z"/>
    </g>
</svg>
