<svg width="20" height="20" viewBox="0 0 20 20" xmlns="http://www.w3.org/2000/svg">
    <g transform="translate(1 1.111)" fill="#FFF" fill-rule="nonzero">
        <path d="M17.457 2.903a2.789 2.789 0 0 0-2.59-2.579L10.323.006a2.832 2.832 0 0 0-2.162.806L.815 8.17a2.78 2.78 0 0 0 0 3.932l4.851 4.86a2.79 2.79 0 0 0 3.945 0l7.353-7.359c.57-.568.865-1.357.806-2.16l-.313-4.54zM8.899 16.256c-.7.696-1.83.696-2.53 0l-4.852-4.848a1.785 1.785 0 0 1 0-2.54l1.166-1.164 7.392 7.387-1.176 1.165zm7.352-7.348-5.48 5.476L3.39 6.997 8.87 1.52a1.78 1.78 0 0 1 1.264-.528c.04 0 .08.01.12.01l4.543.319a1.793 1.793 0 0 1 1.663 1.653l.32 4.54a1.82 1.82 0 0 1-.524 1.391l-.005.002z"/>
        <circle cx="13.865" cy="3.909" r="1"/>
    </g>
</svg>
