<svg width="32" height="32" viewBox="0 0 32 32" xmlns="http://www.w3.org/2000/svg">
    <g stroke="#FFF" fill="none" fill-rule="evenodd">
        <path d="M13.116 7.5h5.915c.062 0 .123.004.183.012 3.26-.012 4.286 1.15 4.286 4.845v7.287c0 3.904-1.078 4.863-4.616 4.856h-5.768c-3.464.007-4.605-1.14-4.616-4.858v-7.285c.011-3.596 1.04-4.864 4.616-4.857z" stroke-linecap="round" stroke-linejoin="round" stroke-width="1.2"/>
        <path d="M12.657 20.847h1.492v.659h-2.35V17.95h.858v2.896zm4.863-1.045c0 .347-.064.654-.193.92a1.421 1.421 0 0 1-.548.617 1.525 1.525 0 0 1-.81.216c-.302 0-.57-.07-.805-.21a1.423 1.423 0 0 1-.548-.596 2.024 2.024 0 0 1-.206-.891v-.2c0-.348.064-.655.192-.922.127-.266.31-.471.549-.616.238-.145.51-.217.814-.217.3 0 .57.07.806.215.236.143.419.347.55.61.13.266.198.569.199.91v.164zm-.871-.15c0-.352-.06-.62-.177-.803a.569.569 0 0 0-.507-.275c-.43 0-.657.322-.681.967l-.002.26c0 .349.057.617.173.804a.566.566 0 0 0 .515.28.56.56 0 0 0 .5-.275c.118-.184.177-.448.179-.793v-.164zm4.223 1.415c-.132.146-.324.264-.578.354a2.513 2.513 0 0 1-.835.134c-.466 0-.838-.142-1.116-.427-.278-.285-.427-.681-.447-1.19l-.002-.307c0-.35.062-.655.185-.917.124-.261.3-.462.53-.603.232-.14.498-.211.8-.211.444 0 .787.102 1.032.304.245.203.388.505.429.907h-.825c-.03-.198-.093-.34-.191-.425-.097-.084-.236-.127-.415-.127a.56.56 0 0 0-.498.274c-.117.182-.176.443-.178.78v.216c0 .355.06.62.182.799.12.179.312.268.572.268.223 0 .389-.05.498-.15v-.551h-.595v-.588h1.452v1.46z" stroke-width=".2" fill="#FFF"/>
        <path stroke-width="1.2" stroke-linecap="round" stroke-linejoin="round" d="M18 11.1h-6M21 14.5h-9"/>
    </g>
</svg>
