<svg width="41" height="40" viewBox="0 0 41 40" xmlns="http://www.w3.org/2000/svg" xmlns:xlink="http://www.w3.org/1999/xlink">
    <defs>
        <circle id="yb3m3d8a3a" cx="20" cy="20" r="20"/>
    </defs>
    <g transform="translate(.5)" fill="none" fill-rule="evenodd">
        <use fill="#FFF" xlink:href="#yb3m3d8a3a"/>
        <path d="M27.071 22.929a9.962 9.962 0 0 0-3.8-2.384 5.78 5.78 0 0 0 2.51-4.764A5.788 5.788 0 0 0 20 10a5.788 5.788 0 0 0-5.781 5.781 5.78 5.78 0 0 0 2.51 4.764 9.962 9.962 0 0 0-3.8 2.384A9.935 9.935 0 0 0 10 30h1.563c0-4.652 3.785-8.438 8.437-8.438 4.652 0 8.438 3.786 8.438 8.438H30a9.935 9.935 0 0 0-2.929-7.071zM20 20a4.224 4.224 0 0 1-4.219-4.219A4.224 4.224 0 0 1 20 11.562a4.224 4.224 0 0 1 4.219 4.22A4.224 4.224 0 0 1 20 20z" stroke="#1782F0" stroke-width=".4" fill="#1982F0" fill-rule="nonzero"/>
    </g>
</svg>
