<svg width="18" height="18" viewBox="0 0 18 18" xmlns="http://www.w3.org/2000/svg">
    <g fill="none" fill-rule="evenodd">
        <circle fill="#43D22B" cx="9" cy="9" r="9"/>
        <path d="M9.31 13.511V5.643l2.745 3.013a.366.366 0 0 0 .533.013c.151-.15.157-.4.013-.558l-3.134-3.44a.734.734 0 0 0-.534-.232.739.739 0 0 0-.54.238L5.265 8.112a.402.402 0 0 0-.104.272c0 .104.039.208.117.285.15.15.39.145.533-.013L8.556 5.63v7.881c0 .218.169.394.377.394a.386.386 0 0 0 .377-.394z" stroke="#FFF" stroke-width=".621" fill="#FFF" fill-rule="nonzero"/>
    </g>
</svg>
