<svg xmlns="http://www.w3.org/2000/svg" width="24" height="24" viewBox="0 0 24 24">
    <g transform="translate(-719 -4288)">
        <circle data-name="24x24" cx="12" cy="12" r="12" transform="translate(719 4288)" style="fill:none"/>
        <path data-name="Path 12754" d="M730.996 4293.722a8.78 8.78 0 0 1 6.4 3.173 14.686 14.686 0 0 1 2.214 3.13.5.5 0 0 1 0 .442 14.686 14.686 0 0 1-2.214 3.13 8.78 8.78 0 0 1-6.4 3.176 8.78 8.78 0 0 1-6.4-3.173 14.687 14.687 0 0 1-2.215-3.13.5.5 0 0 1 0-.442 14.687 14.687 0 0 1 2.215-3.13 8.78 8.78 0 0 1 6.4-3.176zm7.6 6.524a14.321 14.321 0 0 0-1.961-2.692 7.7 7.7 0 0 0-5.644-2.833 7.7 7.7 0 0 0-5.644 2.833 14.322 14.322 0 0 0-1.952 2.692 14.323 14.323 0 0 0 1.952 2.692 7.7 7.7 0 0 0 5.649 2.835 7.7 7.7 0 0 0 5.639-2.835 14.32 14.32 0 0 0 1.956-2.692z"/>
        <path data-name="Path 12755" d="M731.11 4295.658a4.508 4.508 0 1 1-4.508 4.508 4.513 4.513 0 0 1 4.508-4.508zm0 8.016a3.508 3.508 0 1 0-3.508-3.508 3.512 3.512 0 0 0 3.508 3.511z"/>
    </g>
</svg>
