<svg xmlns="http://www.w3.org/2000/svg" width="24" height="24">
    <path fill-rule="evenodd" d="M21.89 8.692L9.453 21.129l.016.016-7.169.875.875-7.169.016.016L15.628 2.43c.249-.249.577-.372.911-.372.354 0 .714.139.991.416l4.317 4.317c.537.537.556 1.388.043 1.901zM3.448 20.873l5.521-.674 9.201-9.201-4.847-4.848-9.202 9.202-.673 5.521zM21.14 7.498l-4.318-4.317c-.107-.107-.223-.123-.283-.123-.057 0-.138.014-.204.079L14.03 5.443l4.847 4.848 2.306-2.306c.068-.068.081-.153.079-.212-.001-.058-.019-.171-.122-.275z"/>
</svg>
