<svg xmlns="http://www.w3.org/2000/svg" width="40" height="40" viewBox="0 0 40 40">
    <g transform="translate(-1224 -32)">
        <circle data-name="Ellipse 83" cx="20" cy="20" r="20" transform="translate(1224 32)" style="fill:#ededed"/>
        <path data-name="Path 12757" d="M16.88 5a2.12 2.12 0 0 1 1.5 3.619l-7.5 7.5L9 18l-4 1 1-4 1.885-1.885 7.5-7.5A2.108 2.108 0 0 1 16.88 5m0-1a3.1 3.1 0 0 0-2.206.914l-7.5 7.5L5.293 14.3a1 1 0 0 0-.264.465l-1 4a1 1 0 0 0 1.214 1.205l4-1a1 1 0 0 0 .465-.263l1.885-1.885 7.5-7.5A3.12 3.12 0 0 0 16.88 4" transform="translate(1232 40)" style="fill:#585858"/>
        <path data-name="Line 133" transform="translate(1238 55)" style="fill:none;stroke:#585858;stroke-linejoin:round" d="m0 0 3 3"/>
        <path data-name="Line 134" transform="translate(1246.5 46.5)" style="fill:none;stroke:#585858;stroke-linejoin:round" d="m0 0 3 3"/>
    </g>
</svg>
