<svg xmlns="http://www.w3.org/2000/svg" width="48" height="48" viewBox="0 0 48 48">
    <path fill-rule="evenodd" d="M35.894 25.029H14.893c-.007 0-.012-.004-.019-.004l8.045 7.733c.399.383.412 1.015.029 1.414-.196.204-.459.306-.721.306-.25 0-.499-.092-.693-.278L10.95 24.029l10.584-10.171c.398-.384 1.032-.371 1.414.027.383.399.37 1.032-.029 1.414l-8.046 7.734c.007 0 .013-.004.02-.004h21.001c.551 0 .999.447.999 1 0 .552-.448 1-.999 1zm-22.057-1l.071.068c-.002-.024-.014-.044-.014-.068 0-.025.012-.045.014-.068l-.071.068z"/>
</svg>
