<svg xmlns="http://www.w3.org/2000/svg" viewBox="0 0 24 24">
    <g transform="translate(-693 -4288)">
        <path data-name="Line 48" d="m712.687 4308.394-16.082-16.081.708-.708 16.081 16.082z"/>
        <path data-name="Path 12308" d="M705.395 4306.751a9.008 9.008 0 0 1-6.6-3.327 15.408 15.408 0 0 1-2.285-3.282.5.5 0 0 1 0-.436 14.957 14.957 0 0 1 3.946-4.816l.606.8a14.113 14.113 0 0 0-3.538 4.24 15.056 15.056 0 0 0 2.028 2.846 7.93 7.93 0 0 0 5.844 2.981 7.09 7.09 0 0 0 4.333-1.588l.606.8a8.064 8.064 0 0 1-4.94 1.782z"/>
        <path data-name="Path 12309" d="M705.035 4304.419a4.454 4.454 0 0 1-3.15-7.6l.707.707a3.454 3.454 0 1 0 4.885 4.885l.707.707a4.425 4.425 0 0 1-3.149 1.301z"/>
        <path data-name="Path 12310" d="m711.5 4303.296-.745-.667a14.427 14.427 0 0 0 1.716-2.369 14.373 14.373 0 0 0-2.015-2.693 8.077 8.077 0 0 0-5.851-2.844 6.7 6.7 0 0 0-2.1.342l-.313-.95a7.693 7.693 0 0 1 2.408-.392 9.162 9.162 0 0 1 6.593 3.174 14.706 14.706 0 0 1 2.289 3.137.5.5 0 0 1 0 .453 14.608 14.608 0 0 1-1.982 2.809z"/>
        <circle data-name="24x24" cx="12" cy="12" r="12" transform="translate(693 4288)" style="fill:none"/>
    </g>
</svg>
