<svg xmlns="http://www.w3.org/2000/svg" width="24" height="24" viewBox="0 0 24 24">
    <path data-name="Path 12356" d="M4 6h11.4" transform="translate(2.299 1.724)" style="stroke-linejoin:round;stroke:#fff;fill:none"/>
    <path data-name="Path 12357" d="M13.7 5.138h-.713V3.72l-4.279-.012v1.429H8V3.713A.715.715 0 0 1 8.713 3h4.281a.715.715 0 0 1 .707.72z" transform="translate(1.15 2.586)" style="stroke-width:.2px;fill:#fff;stroke:#fff"/>
    <path data-name="Rectangle 9297" transform="translate(10 11)" style="fill:#fff" d="M0 0h1v4H0z"/>
    <path data-name="Rectangle 9298" transform="translate(13 11)" style="fill:#fff" d="M0 0h1v4H0z"/>
    <path data-name="Path 12358" d="M14.264 6v9.264a.713.713 0 0 1-.713.713H6.425a.713.713 0 0 1-.713-.713V6H5v9.264a1.425 1.425 0 0 0 1.425 1.425h7.126a1.425 1.425 0 0 0 1.425-1.425V6z" transform="translate(2.012 1.724)" style="stroke-width:.2px;fill:#fff;stroke:#fff"/>
    <path data-name="Rectangle 9299" style="fill:none" d="M0 0h24v24H0z"/>
</svg>
