<svg xmlns="http://www.w3.org/2000/svg" width="24" height="24">
    <path fill-rule="evenodd" fill="#000000"  d="M21.186 21.509h-1.4c-.12-4.403-3.586-7.948-7.842-7.956l-.013.001-.012-.001c-4.256.008-7.722 3.553-7.842 7.956h-1.4c.095-4.068 2.645-7.507 6.174-8.8-1.79-1.057-2.994-3-2.994-5.229 0-3.355 2.72-6.075 6.074-6.075 3.355 0 6.074 2.72 6.074 6.075 0 2.229-1.203 4.172-2.994 5.229 3.53 1.293 6.08 4.732 6.175 8.8zM16.606 7.48c0-2.578-2.097-4.675-4.675-4.675-2.577 0-4.674 2.097-4.674 4.675 0 2.573 2.09 4.667 4.662 4.674l.012-.001.013.001c2.572-.007 4.662-2.101 4.662-4.674z"/>
</svg>
